<?xml version="1.0" encoding="UTF-8" standalone="no"?>
<!-- Generator: Adobe Illustrator 19.0.0, SVG Export Plug-In . SVG Version: 6.00 Build 0)  -->

<svg
   version="1.1"
   id="Layer_1"
   x="0px"
   y="0px"
   viewBox="0 0 120 120"
   xml:space="preserve"
   sodipodi:docname="linkedin.svg"
   inkscape:version="1.1 (c68e22c387, 2021-05-23)"
   width="120"
   height="120"
   xmlns:inkscape="http://www.inkscape.org/namespaces/inkscape"
   xmlns:sodipodi="http://sodipodi.sourceforge.net/DTD/sodipodi-0.dtd"
   xmlns="http://www.w3.org/2000/svg"
   xmlns:svg="http://www.w3.org/2000/svg"><defs
   id="defs37" /><sodipodi:namedview
   id="namedview35"
   pagecolor="#ffffff"
   bordercolor="#666666"
   borderopacity="1.0"
   inkscape:pageshadow="2"
   inkscape:pageopacity="0.0"
   inkscape:pagecheckerboard="0"
   showgrid="true"
   inkscape:zoom="4.5706806"
   inkscape:cx="90.686713"
   inkscape:cy="76.028064"
   inkscape:window-width="2560"
   inkscape:window-height="1417"
   inkscape:window-x="-8"
   inkscape:window-y="-8"
   inkscape:window-maximized="1"
   inkscape:current-layer="Layer_1"
   objecttolerance="10000"
   guidetolerance="10000"><inkscape:grid
     type="xygrid"
     id="grid309"
     enabled="false" /><inkscape:grid
     type="xygrid"
     id="grid311"
     enabled="false" /></sodipodi:namedview>

<g
   id="g4">
</g>
<g
   id="g6">
</g>
<g
   id="g8">
</g>
<g
   id="g10">
</g>
<g
   id="g12">
</g>
<g
   id="g14">
</g>
<g
   id="g16">
</g>
<g
   id="g18">
</g>
<g
   id="g20">
</g>
<g
   id="g22">
</g>
<g
   id="g24">
</g>
<g
   id="g26">
</g>
<g
   id="g28">
</g>
<g
   id="g30">
</g>
<g
   id="g32">
</g>
<path
   style="fill:#0077b7;stroke-width:0.314136"
   d="M 109.15065,-0.00966439 H 10.860595 c -5.9949754,0 -10.85497537,4.85999999 -10.85497537,10.85497439 v 98.28974 c 0,5.99529 4.85999997,10.85529 10.85497537,10.85529 h 98.289735 c 5.99529,0 10.85529,-4.86 10.85529,-10.85529 V 10.84531 c 0,-5.9949744 -4.86,-10.85497439 -10.85497,-10.85497439 z M 37.13871,103.60626 c 0,1.74471 -1.414241,3.15895 -3.158953,3.15895 H 20.532846 c -1.744712,0 -3.158953,-1.41424 -3.158953,-3.15895 V 47.237352 c 0,-1.744712 1.414241,-3.158953 3.158953,-3.158953 h 13.446911 c 1.744712,0 3.158953,1.414241 3.158953,3.158953 z M 27.256302,38.764786 c -7.055184,0 -12.77466,-5.719476 -12.77466,-12.774659 0,-7.055184 5.719476,-12.77466 12.77466,-12.77466 7.055183,0 12.774659,5.719476 12.774659,12.77466 0,7.055183 -5.719162,12.774659 -12.774659,12.774659 z M 107.4119,103.86071 c 0,1.60398 -1.30052,2.9045 -2.9045,2.9045 H 90.077874 c -1.60398,0 -2.9045,-1.30052 -2.9045,-2.9045 V 77.420494 c 0,-3.94429 1.15696,-17.284085 -10.30775,-17.284085 -8.892883,0 -10.696652,9.130685 -11.058851,13.228275 v 30.496026 c 0,1.60398 -1.30021,2.9045 -2.904503,2.9045 H 48.946459 c -1.603979,0 -2.904503,-1.30052 -2.904503,-2.9045 V 46.982901 c 0,-1.603979 1.300524,-2.904502 2.904503,-2.904502 H 62.90227 c 1.603979,0 2.904503,1.300523 2.904503,2.904502 v 4.917801 c 3.297487,-4.948586 8.198011,-8.768167 18.632041,-8.768167 23.105336,0 22.973086,21.586179 22.973086,33.446699 z"
   id="path2" /></svg>
