<?xml version="1.0" encoding="UTF-8" standalone="no"?>
<!-- Created with Inkscape (http://www.inkscape.org/) -->

<svg
   width="153.59117mm"
   height="134.86531mm"
   viewBox="0 0 153.59117 134.86531"
   version="1.1"
   id="svg5"
   inkscape:version="1.1 (c68e22c387, 2021-05-23)"
   sodipodi:docname="showcase.svg"
   xmlns:inkscape="http://www.inkscape.org/namespaces/inkscape"
   xmlns:sodipodi="http://sodipodi.sourceforge.net/DTD/sodipodi-0.dtd"
   xmlns="http://www.w3.org/2000/svg"
   xmlns:svg="http://www.w3.org/2000/svg">
  <sodipodi:namedview
     id="namedview7"
     pagecolor="#ffffff"
     bordercolor="#111111"
     borderopacity="1"
     inkscape:pageshadow="0"
     inkscape:pageopacity="0"
     inkscape:pagecheckerboard="1"
     inkscape:document-units="mm"
     showgrid="false"
     inkscape:zoom="0.77771465"
     inkscape:cx="381.24523"
     inkscape:cy="350.38558"
     inkscape:window-width="2560"
     inkscape:window-height="1417"
     inkscape:window-x="-8"
     inkscape:window-y="-8"
     inkscape:window-maximized="1"
     inkscape:current-layer="layer1" />
  <defs
     id="defs2" />
  <g
     inkscape:label="Layer 1"
     inkscape:groupmode="layer"
     id="layer1"
     transform="translate(-4.2106071,-55.737923)">
    <path
       style="fill:#000000;fill-opacity:1;fill-rule:nonzero;stroke:none;stroke-width:0.264583"
       id="path75"
       d="m 4.2106111,64.83089 c 2.320322,5.954334 5.199476,11.673864 8.0191569,17.402699 2.503128,4.847749 4.701075,9.917205 7.862784,14.389068 0.287207,0.257093 0.533248,0.569399 0.86162,0.771284 1.092608,0.67174 2.257156,0.0778 3.230525,-0.493966 4.316328,-2.535468 3.648633,-2.120376 6.496375,-4.154406 2.018049,-1.414295 4.179906,-2.636845 6.123422,-4.158342 0.921647,-0.721521 2.269347,-1.88218 2.864932,-2.94672 0.306525,-0.547878 0.412094,-1.186043 0.618141,-1.779064 -0.0173,-0.671589 0.06685,-1.353534 -0.05189,-2.01477 -0.262049,-1.459357 -1.169966,-3.293435 -1.849713,-4.559305 -1.030485,-1.919042 -1.675198,-2.748058 -2.802138,-4.594805 -0.432824,-0.709276 -0.840719,-1.43347 -1.261078,-2.150205 -2.171893,-3.724582 -2.891118,-7.934571 -3.392324,-12.14973 -0.0503,-1.390729 0.08292,-4.770485 -3.22775,1.422043 -0.356071,0.666022 0.547672,1.407784 0.807175,2.117032 2.018054,5.515514 0.79206,2.412545 3.156786,8.762751 0.714516,1.91875 1.457825,3.826653 2.186737,5.739982 4.129158,10.595369 8.553373,21.080089 13.276894,31.424394 0.566804,1.18828 1.612313,3.49414 2.374281,4.74365 0.21218,0.34794 0.433102,0.70362 0.736071,0.9762 0.151011,0.13585 0.395721,0.29922 0.574596,0.20296 1.328306,-0.71481 2.500899,-1.68728 3.751352,-2.53092 0,0 -3.604773,1.60652 -3.604773,1.60652 v 0 c 1.02784,-0.4548 2.073518,-0.87125 3.08352,-1.3644 0.138091,-0.0674 -0.325408,0.16471 -0.453938,0.0805 -0.325842,-0.21354 -0.549381,-0.55856 -0.767807,-0.88114 -0.844791,-1.24762 -1.872234,-3.41208 -2.495971,-4.64245 C 45.438602,95.798184 40.971041,85.340676 36.923154,74.728995 36.214587,72.80716 35.483919,70.893328 34.797452,68.963486 c -1.285065,-3.612671 -1.831668,-5.391771 -2.94758,-8.877585 -0.240125,-0.750089 0.05549,-2.109216 -0.719304,-2.250604 -4.276035,-0.780318 -3.810572,0.655719 -3.612439,2.350386 0.569659,4.252994 1.275102,8.512577 3.514281,12.260355 0.425754,0.718407 0.839864,1.443842 1.277263,2.155219 1.112544,1.809411 1.778693,2.668445 2.775937,4.557956 0.644998,1.2221 1.509085,3.018499 1.725919,4.435858 0.0954,0.623605 -0.01222,1.261663 -0.01834,1.892496 -0.221138,0.552696 -0.353229,1.149993 -0.663416,1.658088 -0.624451,1.022864 -1.955414,2.135894 -2.868403,2.839241 -1.960777,1.510536 -4.120941,2.743266 -6.142408,4.166336 -0.588656,0.414729 -1.977593,0.555908 -1.765967,1.244187 0.203993,0.663459 1.209537,-0.695193 1.861701,-0.932828 0.431617,-0.157271 -0.778659,0.491691 -1.193362,0.6893 -0.601443,0.286594 -1.107889,0.493353 -1.748862,0.171773 -0.32149,-0.161295 -0.560097,-0.451416 -0.840145,-0.677124 -3.283174,-4.356796 -5.482364,-9.42508 -8.008298,-14.229106 -2.81182,-5.71014 -5.6987427,-11.430442 -7.742078,-17.47079 0,0 -3.4713439,1.884246 -3.4713439,1.884246 z" />
    <path
       style="fill:#000000;fill-opacity:1;fill-rule:nonzero;stroke:none;stroke-width:0.264583"
       id="path77"
       d="m 52.620229,57.506785 c -0.0089,3.145155 1.079318,6.207506 2.020049,9.1671 0.865275,2.722211 2.177299,6.531981 3.084232,9.1986 2.629152,7.538135 4.704517,15.245553 6.263667,23.071385 0,0 3.363462,-1.803659 3.363462,-1.803659 v 0 c -1.764427,-7.77486 -3.87691,-15.462313 -6.478346,-23.002843 -0.985904,-2.972326 -2.0911,-6.222619 -2.989181,-9.233664 -0.880861,-2.953306 -1.885246,-6.043007 -1.719754,-9.165781 0,0 -3.544129,1.768862 -3.544129,1.768862 z" />
    <path
       style="fill:#000000;fill-opacity:1;fill-rule:nonzero;stroke:none;stroke-width:0.264583"
       id="path79"
       d="m 74.75013,61.156958 c -2.344952,3.612277 -4.265533,7.477762 -6.239997,11.298856 -1.531564,2.838043 -3.054958,5.680424 -4.581382,8.521224 -0.874019,1.626621 -1.701517,3.265911 -2.697988,4.820872 -0.104428,0.09095 -0.438099,0.332825 -0.313282,0.272844 1.270918,-0.610751 2.570411,-1.179796 3.763713,-1.93098 0.259358,-0.163266 0.322938,-0.522724 0.514348,-0.76206 0.278826,-0.348642 0.570883,-0.689044 0.893199,-0.997924 1.134694,-1.08739 1.370504,-1.11855 2.751084,-1.946307 -0.483507,0.382267 -1.856033,0.682612 -1.450525,1.1468 0.484153,0.554209 1.450763,-0.308118 2.186654,-0.30415 0.829728,0.0045 1.664449,0.119915 2.467346,0.329258 2.02521,0.528043 3.740941,1.489732 5.438648,2.695753 0.9042,0.642331 1.717733,1.40359 2.576602,2.105387 2.912935,2.829118 1.54463,1.421932 4.120293,4.206555 0,0 3.230393,-1.964558 3.230393,-1.964558 v 0 c -2.628194,-2.784543 -1.237237,-1.37228 -4.18619,-4.223639 -0.865513,-0.717042 -1.68788,-1.489612 -2.596539,-2.151128 -2.335855,-1.700533 -5.028671,-3.148891 -7.983995,-3.280736 -0.74704,-0.03333 -1.534842,-0.05373 -2.233139,0.213781 -1.803204,0.690782 -3.444152,1.747205 -5.166227,2.620809 -1.546093,0.995783 -2.524041,1.632447 -3.639902,3.128243 -0.199549,0.267494 -0.857264,0.898027 -0.526815,0.851368 1.229151,-0.173559 2.358485,-0.784296 3.500337,-1.271233 0.120161,-0.05124 0.152022,-0.212473 0.228031,-0.318709 0.909267,-1.56482 1.71454,-3.181863 2.558825,-4.782545 1.502466,-2.84852 3.024045,-5.687179 4.561134,-8.517143 2.01858,-3.851223 3.992454,-7.747172 6.447197,-11.34531 0,0 -3.621823,1.584672 -3.621823,1.584672 z" />
    <path
       style="fill:#000000;fill-opacity:1;fill-rule:nonzero;stroke:none;stroke-width:0.264583"
       id="path81"
       d="m 14.23506,155.68212 c 0.840187,-1.87711 2.132437,-3.44795 3.814911,-4.65631 0.960476,-0.68982 1.9566,-1.36511 3.054687,-1.80393 0.307328,-0.12282 0.647004,0.2468 0.973732,0.19405 1.689307,-0.27277 3.334044,-0.77253 5.001066,-1.1588 1.768221,-0.13579 3.531264,-0.41711 5.304665,-0.40735 3.114209,0.0171 6.456111,0.44801 9.27522,1.90783 2.156018,1.11645 4.015909,2.90546 4.750335,5.28307 0.292396,0.9466 0.100044,1.97894 0.150066,2.96841 -1.260861,2.28826 -1.417669,3.542 -4.259964,4.44613 -0.307268,0.0977 -0.301342,-0.70773 -0.622085,-0.74076 -1.457161,-0.15003 -2.925657,0.29501 -4.38884,0.22482 -3.776265,-0.18113 -5.454277,-0.90745 -9.037288,-1.96298 -3.567537,-1.29674 -6.747879,-3.23965 -9.609981,-5.70975 -0.622813,-0.53751 -1.18535,-1.14135 -1.79102,-1.69811 -0.350266,-0.32198 -0.612262,-1.04299 -1.0762,-0.93755 -1.421061,0.32297 -2.57123,1.37247 -3.856844,2.0587 0.138527,0.58656 0.256228,1.17844 0.415583,1.75968 1.473706,5.37533 0.217134,0.11124 1.888789,6.53674 1.139018,4.37815 1.967247,8.8001 2.741957,13.25359 0.830616,5.08761 1.308886,10.22158 1.627635,15.36364 0,0 3.425508,-1.77899 3.425508,-1.77899 v 0 c -0.478925,-5.11287 -0.977953,-10.22756 -1.838029,-15.29378 -0.789327,-4.46487 -1.630458,-8.90203 -2.713712,-13.30702 -0.542255,-2.20505 -1.251144,-4.37 -1.714095,-6.59305 -0.09661,-0.46389 -0.103184,-0.94205 -0.154776,-1.41308 -1.038459,0.49236 -2.374626,0.59839 -3.115378,1.47708 -0.307519,0.36479 0.772917,0.56139 1.134869,0.87224 0.635048,0.54539 1.212501,1.15607 1.853619,1.69431 2.936718,2.46547 6.166616,4.44136 9.784115,5.76344 3.586737,1.08261 5.311614,1.82644 9.091187,2.07237 4.97921,0.324 6.41146,-0.50289 11.426447,-3.00576 1.023561,-0.51083 2.031902,-1.14861 2.77659,-2.01699 0.673161,-0.78496 0.899237,-1.86242 1.348854,-2.79363 -0.0867,-1.03447 0.06755,-2.11838 -0.260096,-3.10341 -1.950813,-5.86498 -9.009687,-7.3749 -14.374103,-7.45009 -1.778268,-0.0249 -3.549018,0.23645 -5.323526,0.35468 -6.756438,1.46651 -4.803833,0.66066 -12.300128,4.47831 -3.000964,1.5283 -5.626232,3.66181 -6.9721,6.8063 0,0 3.56833,-1.68405 3.56833,-1.68405 z" />
    <circle
       id="path83"
       style="fill:#000000;stroke:#000000;stroke-width:0.264583"
       cx="48.989689"
       cy="161.25772"
       r="0.045315132" />
    <circle
       id="path85"
       style="fill:#000000;stroke:#000000;stroke-width:0.264583"
       cx="48.989689"
       cy="161.25772"
       r="0.045315132" />
    <path
       style="fill:#000000;fill-opacity:1;fill-rule:nonzero;stroke:none;stroke-width:0.264583"
       id="path87"
       d="m 47.36974,171.26705 c 1.079357,3.7749 2.432849,7.47072 3.834111,11.13677 0,0 3.339714,-1.85921 3.339714,-1.85921 v 0 c -1.412676,-3.64702 -2.769007,-7.34096 -3.689757,-11.14644 0,0 -3.484068,1.86888 -3.484068,1.86888 z" />
    <path
       style="fill:#000000;fill-opacity:1;fill-rule:nonzero;stroke:none;stroke-width:0.264583"
       id="path89"
       d="m 46.405657,165.7225 c 0.843327,-0.52909 1.803254,-0.90684 2.529985,-1.58729 0.290266,-0.27178 -0.764228,0.22441 -1.1547,0.2996 -0.974428,0.18762 -2.128385,0.31668 -3.075696,-0.0856 -0.143537,-0.061 -0.250209,-0.1862 -0.375312,-0.2793 0.02114,-0.0688 0.0087,-0.15963 0.06346,-0.20635 0.114417,-0.0977 0.532553,-0.27802 0.406927,-0.19525 -0.870974,0.57388 -1.869882,0.97357 -2.64591,1.6705 -0.284089,0.25513 0.734639,-0.21099 1.108292,-0.2896 0.834191,-0.17552 1.631063,-0.25313 2.475158,-0.35467 0.69823,-0.0631 2.958481,-0.29106 2.935298,0.9567 -0.0026,0.13526 -0.06584,0.26244 -0.09876,0.39366 -0.07306,0.12093 -0.121754,0.26048 -0.219197,0.36279 -0.108826,0.11427 -0.257709,0.18218 -0.386567,0.27327 0.951376,-0.57521 1.929802,-1.1079 2.854127,-1.72565 0.17766,-0.11873 -0.396039,0.16336 -0.601951,0.22047 -0.202139,0.0561 -0.412105,0.0786 -0.618157,0.11792 0,0 -3.160424,2.36744 -3.160424,2.36744 v 0 c 2.14312,-0.22684 2.884387,-1.03422 5.189014,-2.48738 0.148595,-0.0937 0.243853,-0.25781 0.329967,-0.41093 0.08174,-0.14533 0.110958,-0.31447 0.166436,-0.47172 0.007,-0.18062 0.04945,-0.36334 0.02114,-0.54187 -0.241279,-1.52186 -2.135611,-1.49896 -3.280722,-1.38455 -0.960429,0.10698 -1.536692,0.1585 -2.494952,0.31722 -0.378116,0.0626 -0.78363,0.0508 -1.129257,0.21639 -1.412047,0.67672 -2.781533,1.44773 -4.101312,2.29035 -0.161372,0.10303 -0.24453,0.31508 -0.275444,0.50402 -0.02678,0.16369 0.07582,0.32296 0.113731,0.48444 0.159033,0.1307 0.29311,0.29978 0.477099,0.39209 0.977503,0.49044 2.179071,0.37977 3.215719,0.23033 0.397346,-0.0573 0.819523,-0.0567 1.182571,-0.22804 1.452989,-0.68576 2.815458,-1.54886 4.223187,-2.3233 0,0 -3.673763,1.47431 -3.673763,1.47431 z" />
    <path
       style="fill:#000000;fill-opacity:1;fill-rule:nonzero;stroke:none;stroke-width:0.264583"
       id="path91"
       d="m 54.722656,166.29185 c -0.897821,1.67394 -1.19413,3.27069 -0.636862,5.11835 0.09367,0.31058 0.241138,0.60231 0.361706,0.90347 0.172474,0.24518 0.30901,0.52008 0.517422,0.73556 1.543222,1.5955 4.403362,1.24286 6.377437,1.07514 1.605423,-0.16628 3.184245,-0.47879 4.751192,-0.85547 0,0 3.120509,-2.38512 3.120509,-2.38512 v 0 c -1.570196,0.40083 -3.147057,0.75928 -4.761812,0.9362 -1.757257,0.18199 -4.670856,0.61147 -6.101461,-0.77032 -0.19317,-0.18658 -0.317434,-0.4333 -0.476152,-0.64994 -0.112057,-0.27986 -0.251378,-0.55028 -0.336167,-0.83957 -0.523729,-1.78694 -0.117332,-3.30609 0.798016,-4.87534 0,0 -3.613828,1.60704 -3.613828,1.60704 z" />
    <path
       style="fill:#000000;fill-opacity:1;fill-rule:nonzero;stroke:none;stroke-width:0.264583"
       id="path93"
       d="m 65.431002,154.06116 c 2.420395,3.20491 4.486625,6.63549 6.366172,10.17847 1.379384,2.60284 2.412042,5.35409 3.286302,8.16012 0,0 3.413482,-1.8749 3.413482,-1.8749 v 0 c -0.926827,-2.8088 -1.986939,-5.56947 -3.385926,-8.18287 -1.888908,-3.55268 -3.966707,-6.98589 -6.285933,-10.27618 0,0 -3.394097,1.99536 -3.394097,1.99536 z" />
    <path
       style="fill:#000000;fill-opacity:1;fill-rule:nonzero;stroke:none;stroke-width:0.264583"
       id="path95"
       d="m 64.388325,165.75841 c 3.31992,-0.44259 6.675122,-0.51744 10.007258,-0.82575 2.252708,-0.20844 4.062897,-0.47485 6.28795,-0.77534 0,0 3.012591,-2.25281 3.012591,-2.25281 v 0 c -2.148277,0.30541 -4.125463,0.61155 -6.293496,0.81128 -3.276949,0.30189 -6.575544,0.34091 -9.849553,0.68261 0,0 -3.16475,2.36001 -3.16475,2.36001 z" />
    <path
       style="fill:#000000;fill-opacity:1;fill-rule:nonzero;stroke:none;stroke-width:0.264583"
       id="path97"
       d="m 89.950892,157.88184 c -0.21177,1.19102 -0.341548,2.3946 -0.450297,3.59874 -0.100888,1.11711 -0.221678,1.85334 -7.94e-4,2.97013 0.0892,0.4512 0.287986,0.87362 0.431978,1.31043 0.263874,0.35895 0.472485,0.76602 0.791622,1.07687 1.238488,1.20633 3.552926,1.85678 5.165834,1.02309 1.557533,-0.80507 3.010667,-1.79779 4.516005,-2.69668 1.03225,-1.02621 1.67946,-2.29913 2.19516,-3.64249 0.30605,-0.79723 0.42555,-1.66416 0.85836,-2.4008 -1.06089,0.66263 -2.20238,1.21097 -3.18266,1.98789 -0.11301,0.0896 0.23975,0.16247 0.34481,0.26124 0.20788,0.19542 0.39333,0.41341 0.59136,0.61881 0.84769,0.87926 1.71345,1.71041 2.63169,2.5159 1.19263,0.9473 0.60385,0.50706 1.7612,1.32757 0,0 3.30453,-2.10711 3.30453,-2.10711 v 0 c -1.15545,-0.78499 -0.56848,-0.36103 -1.75523,-1.27971 -1.13358,-0.98819 -2.15699,-2.03901 -3.16777,-3.15025 -0.16399,-0.1803 -0.26674,-0.61815 -0.49648,-0.53678 -1.30535,0.46235 -2.42683,1.33465 -3.64025,2.00197 -0.382294,0.99306 0.08429,-0.25799 -0.411562,1.29509 -0.543158,1.70126 -1.291482,3.32171 -2.651847,4.52971 0.728305,-0.36691 1.525555,-0.62083 2.184921,-1.10072 0.360675,-0.2625 -0.826275,0.36027 -1.266505,0.4323 -1.243153,0.2034 -2.698104,-0.21155 -3.628369,-1.06804 -0.29704,-0.27348 -0.488521,-0.643 -0.732782,-0.9645 -0.132141,-0.40752 -0.318362,-0.80132 -0.396425,-1.22255 -0.191426,-1.03296 -0.06934,-1.87613 0.0339,-2.90851 0.120309,-1.20306 0.269145,-2.40675 0.535091,-3.58754 0,0 -3.565385,1.71594 -3.565385,1.71594 z" />
    <path
       style="fill:#000000;fill-opacity:1;fill-rule:nonzero;stroke:none;stroke-width:0.264583"
       id="path99"
       d="m 113.84008,162.84037 c -0.85205,-2.18412 -1.47137,-4.42763 -1.85845,-6.73749 -0.20534,-2.00143 -0.13965,-3.13134 1.38959,-4.517 0,0 -3.64541,1.5106 -3.64541,1.5106 v 0 c -1.40216,1.55173 -1.44576,2.81221 -1.19409,4.83863 0.40746,2.32626 1.06168,4.57656 1.83873,6.80563 0,0 3.46963,-1.90037 3.46963,-1.90037 z" />
    <path
       style="fill:#000000;fill-opacity:1;fill-rule:nonzero;stroke:none;stroke-width:0.264583"
       id="path101"
       d="m 118.6344,155.26995 c 2.05588,0.0101 4.10955,-0.10239 6.15551,-0.29987 1.73379,-0.16735 2.63537,-0.2417 4.28642,-0.71135 0.55053,-0.1566 1.07807,-0.38496 1.6171,-0.57743 1.97491,-1.03606 2.86213,-1.45336 5.09761,-3.1984 0.53354,-0.41648 -0.0465,-1.32777 -0.40572,-1.57588 -0.18911,-0.13063 -0.41642,-0.19468 -0.62463,-0.29202 -0.30084,-0.0624 -0.59889,-0.14018 -0.90251,-0.1872 -0.62476,-0.0967 -2.22295,-0.23812 -2.7862,-0.30357 -1.63126,-0.18953 -3.25311,-0.44496 -4.88366,-0.64083 -0.46125,-0.006 -0.92491,-0.0665 -1.38374,-0.0189 -0.41316,0.0429 -0.84651,0.0915 -1.21233,0.2883 -2.36238,1.27073 -4.07457,1.71768 -5.09176,3.87353 -0.63977,1.35594 -0.51787,1.66238 -0.62273,3.15499 0.0981,0.56484 0.13254,1.14452 0.29435,1.6945 0.59802,2.03267 2.1115,3.74646 3.92548,4.80419 0.39405,0.22976 0.82637,0.38648 1.23956,0.57972 2.30774,0.73647 4.85832,0.94982 7.18764,0.15372 0.36267,-0.12395 0.7009,-0.31031 1.05135,-0.46547 0,0 3.05655,-2.4362 3.05655,-2.4362 v 0 c -0.34056,0.17538 -0.6662,0.38342 -1.02169,0.52613 -2.24085,0.89961 -4.75755,0.72557 -7.02993,0.0685 -0.40069,-0.17312 -0.81928,-0.30959 -1.20206,-0.51936 -1.75719,-0.96299 -3.24217,-2.56869 -3.79044,-4.5225 -0.14667,-0.52269 -0.1649,-1.07317 -0.24736,-1.60975 0.14996,-1.40132 0.0417,-1.73589 0.72713,-2.98292 0.21424,-0.3898 1.24289,-1.08631 0.79842,-1.06918 -0.87364,0.0337 -1.62394,0.66916 -2.36713,1.12965 -0.34531,0.21395 0.75668,-0.31603 1.15778,-0.38033 0.44988,-0.0721 0.91109,-0.0162 1.36664,-0.0243 2.824,0.30801 5.63445,0.74488 8.45422,1.08514 0.29858,0.0978 0.99327,0.22329 0.89818,0.72449 -0.0311,0.16382 -0.3732,0.50782 -0.21646,0.45096 1.20671,-0.4377 4.42084,-2.35739 1.57534,-0.6882 -0.53617,0.21046 -1.059,0.45867 -1.6085,0.63137 -1.67716,0.52713 -2.49541,0.59623 -4.27361,0.77504 -2.00423,0.20154 -4.0204,0.31817 -6.0351,0.25038 0,0 -3.18372,2.3131 -3.18372,2.3131 z" />
    <path
       style="fill:#000000;fill-opacity:1;fill-rule:nonzero;stroke:none;stroke-width:0.264583"
       id="path103"
       d="m 138.64063,131.78982 c 1.82264,3.84503 3.36049,7.8016 4.73711,11.82503 0.88308,3.17828 1.9284,6.29579 3.08584,9.38264 0.12869,0.32082 0.25739,0.64164 0.38608,0.96246 0,0 3.41969,-1.91215 3.41969,-1.91215 v 0 c -0.13031,-0.31632 -0.26061,-0.63264 -0.39091,-0.94896 -1.1735,-3.06888 -2.27389,-6.15707 -3.17547,-9.31953 -1.39399,-4.02761 -2.94035,-7.9906 -4.60676,-11.91314 0,0 -3.45558,1.92365 -3.45558,1.92365 z" />
    <path
       style="fill:#000000;fill-opacity:1;fill-rule:nonzero;stroke:none;stroke-width:0.264583"
       id="path105"
       d="m 152.82587,158.55872 c -2.00391,1.0701 -3.74032,1.94312 -5.16549,3.58273 -0.22796,0.26227 -0.64335,0.76808 -0.75796,1.12376 -0.0567,0.17598 -0.0345,0.36817 -0.0518,0.55225 0.5817,1.96867 2.27959,2.05798 4.05274,1.95804 0.79775,-0.17209 1.63054,-0.36024 2.3438,-0.78011 2.33417,-1.37405 3.4716,-1.38885 4.41135,-3.2259 0.48418,-1.23916 -0.3297,-1.67431 -1.37983,-2.03155 -0.68814,-0.16312 -0.35645,-0.0834 -0.99516,-0.23878 0,0 -3.26108,2.24965 -3.26108,2.24965 v 0 c 0.64128,0.16373 0.31251,0.0902 0.98679,0.21839 0.89252,0.24429 1.57208,0.3609 1.02862,1.41225 -0.87007,1.3008 -2.37744,1.71125 2.28764,-0.84944 0.20645,-0.11332 -0.4055,0.24119 -0.61912,0.34031 -0.59734,0.27716 -1.01615,0.37997 -1.65066,0.57421 -1.34173,0.15167 -3.2643,0.30519 -3.64707,-1.36794 0.0354,-0.13782 0.0457,-0.28465 0.1061,-0.41345 0.73039,-1.55662 4.84464,-3.87223 -0.77201,-0.62013 0,0 3.0831,-2.48429 3.0831,-2.48429 z" />
  </g>
</svg>
